<svg xmlns="http://www.w3.org/2000/svg" viewBox="250.500 140.500 84.000 134.500"><g xmlns="http://www.w3.org/2000/svg" id="a person/bust">
<g id="BODY">
<path id="â Skin" fill-rule="evenodd" clip-rule="evenodd" d="M330.718 258.037C330.293 255.636 329.903 253.228 329.549 250.816C329.381 249.67 329.217 248.523 329.069 247.375C328.966 246.57 328.809 245.65 329.356 245.054C330.126 244.216 330.826 243.498 330.921 242.296C331.009 241.166 330.627 239.933 330.388 238.836C329.887 236.535 329.263 234.262 328.573 232.011C327.873 229.724 327.104 227.458 326.325 225.197C325.597 223.082 324.897 220.949 323.948 218.92C322.147 215.071 319.101 212.22 315.336 210.316C314.399 209.843 312.49 208.153 311.511 207.775C310.612 207.427 310.615 208.442 309.73 208.06C309.023 207.754 308.364 207.346 307.967 206.663C307.537 205.921 306.459 204.883 306.294 204.02C305.946 202.19 306.323 200.632 305.017 199.254C303.857 198.031 302.299 197.193 300.686 196.743C297.138 195.754 292.406 196.445 290.265 199.742C289.243 201.317 288.886 203.22 287.506 204.505C286.301 205.627 286.571 206.394 285.011 206.972C284.922 207.005 282.527 206.491 282.439 206.524C280.732 206.159 279.1 207.181 277.534 207.775C275.2 208.659 272.977 209.81 270.889 211.178C266.678 213.937 263.071 217.52 260.098 221.574C257.1 225.661 254.774 230.243 253.118 235.031C252.716 236.194 252.355 237.371 252.036 238.56C251.858 239.225 251.667 239.915 251.884 240.596C252.062 241.153 252.457 241.568 252.921 241.903C253.55 242.356 254.812 242.65 254.787 243.562C254.768 244.255 254.533 244.984 254.418 245.669C254.282 246.485 254.17 247.305 254.057 248.125C253.547 251.853 253.149 255.603 252.974 259.364C252.801 263.066 252.657 266.845 252.914 270.546C252.931 270.79 253.004 271.014 253.121 271.204C253.012 271.246 253.003 271.45 253.14 271.479C253.235 271.499 253.33 271.519 253.426 271.54C253.625 271.69 253.872 271.782 254.157 271.791C254.35 271.797 254.543 271.806 254.736 271.816C256.772 272.241 258.808 272.643 260.87 272.948C263.377 273.318 265.892 273.619 268.414 273.864C273.597 274.368 278.739 274.201 283.929 273.93C289.111 273.658 294.289 273.595 299.476 273.73C304.668 273.865 309.858 274.091 315.051 274.183C320.852 274.286 326.645 274.128 332.429 273.667C333.222 273.604 333.713 272.973 333.557 272.185C332.619 267.465 331.557 262.777 330.718 258.037Z" fill="#D08B5B" />
<path id="ð Top" fill-rule="evenodd" clip-rule="evenodd" d="M277.534 207.774L277.648 207.731C279.179 207.133 280.773 206.167 282.439 206.524C282.498 206.502 283.581 206.723 284.324 206.863L283.619 207.599L282.376 207.838C286.666 214.919 291.74 218.459 297.598 218.459C303.456 218.459 307.902 214.919 310.934 207.838L311.348 207.723C311.399 207.735 311.453 207.752 311.511 207.774C312.49 208.153 314.399 209.843 315.336 210.316C319.101 212.22 322.147 215.071 323.948 218.92C324.865 220.881 325.55 222.94 326.253 224.985L326.325 225.197C327.104 227.458 327.873 229.724 328.573 232.011C329.233 234.164 329.832 236.337 330.322 238.536L330.388 238.836C330.627 239.933 331.009 241.166 330.921 242.296C330.887 242.724 330.776 243.091 330.613 243.423L322.128 246.477L326.17 274.049C322.467 274.208 318.761 274.249 315.051 274.183C309.858 274.091 304.668 273.865 299.476 273.73C294.446 273.599 289.424 273.655 284.4 273.906L283.124 273.971C278.207 274.217 273.329 274.342 268.414 273.864L268.079 273.832L268.079 269.798L269.806 247.34L261.056 245.693L252.468 241.521C252.208 241.262 252 240.959 251.884 240.596C251.683 239.965 251.832 239.327 251.996 238.707L252.036 238.56C252.355 237.371 252.716 236.194 253.118 235.031C254.774 230.243 257.1 225.661 260.098 221.574C263.071 217.52 266.678 213.937 270.889 211.178C272.977 209.81 275.2 208.659 277.534 207.774Z" fill="#EC7495" />
<path id="ð Ink" fill-rule="evenodd" clip-rule="evenodd" d="M280.82 206.408C281.356 206.384 281.903 206.471 282.439 206.524C282.485 206.528 282.503 206.6 282.45 206.611C281.493 206.811 280.545 207.085 279.604 207.363L279.202 207.482C278.141 207.796 277.111 208.12 276.084 208.539C274.037 209.373 272.093 210.499 270.304 211.792C263.415 216.773 258.429 224.314 255.282 232.122C254.428 234.243 253.704 236.416 253.117 238.626C252.975 239.163 252.84 239.703 252.713 240.245C252.676 240.403 252.513 240.81 252.602 240.972C252.681 241.116 252.988 241.205 253.131 241.279L253.612 241.529C254.55 242.012 256.113 242.807 256.27 242.885L256.515 243.005C260.514 244.966 264.786 246.628 269.286 246.743L269.322 246.359C269.522 244.234 269.786 242.099 270.36 240.039C270.391 239.929 270.532 239.966 270.545 240.064C270.865 242.502 270.763 244.959 270.651 247.408C270.453 251.746 270.19 256.081 269.957 260.417C269.84 262.586 269.689 264.754 269.553 266.921C269.416 269.094 269.372 271.318 269.06 273.472C268.99 273.952 268.428 274.214 268.002 274.163C267.531 274.107 267.168 273.692 267.166 273.216C267.16 271.961 267.318 270.691 267.406 269.439C267.489 268.25 267.578 267.061 267.67 265.872C268.004 261.534 268.389 257.2 268.745 252.863C268.872 251.325 269.008 249.788 269.148 248.252C264.381 248.098 259.927 246.332 255.679 244.269C255.617 245.666 255.469 247.059 255.325 248.45C254.924 252.33 254.57 256.209 254.305 260.101C254.171 262.067 254.074 264.035 253.989 266.004C253.947 266.972 253.913 267.939 253.887 268.907C253.879 269.23 253.871 269.553 253.864 269.875L253.849 270.615C253.837 271.083 253.79 271.517 253.396 271.858C252.995 272.204 252.455 272.223 252.058 271.858C251.528 271.369 251.622 270.704 251.638 270.048C251.651 269.495 251.666 268.942 251.685 268.389C251.721 267.282 251.768 266.177 251.825 265.071C252.024 261.207 252.421 257.358 252.941 253.524L253.144 252.044C253.522 249.293 253.938 246.48 254.785 243.83C254.455 243.666 254.126 243.501 253.799 243.335C253.218 243.041 252.618 242.765 252.053 242.44C251.605 242.183 251.219 241.83 251.094 241.309C250.955 240.728 251.168 240.093 251.309 239.526L251.321 239.476C251.46 238.906 251.609 238.338 251.766 237.773C252.404 235.48 253.194 233.231 254.117 231.038C255.966 226.646 258.353 222.474 261.268 218.702C263.893 215.307 266.993 212.227 270.626 209.918C272.403 208.789 274.296 207.862 276.298 207.206C277.233 206.9 278.251 206.633 279.231 206.524C279.76 206.465 280.289 206.431 280.82 206.408ZM290.325 199.449C290.963 198.765 292.229 199.473 291.923 200.379C291.203 202.512 290.057 204.458 288.267 205.859C286.585 207.177 284.58 208.032 282.419 207.85C282.403 207.848 282.388 207.844 282.376 207.838L282.562 208.09C284.023 210.067 285.565 212.017 287.423 213.633C291.209 216.925 296.364 218.7 301.342 217.437C305.258 216.444 308.709 213.347 309.723 209.4C309.578 209.465 309.405 209.487 309.215 209.446C308.403 209.27 307.6 208.416 307.076 207.804C306.509 207.141 306.067 206.426 305.743 205.618C305.149 204.138 304.959 202.233 305.769 200.8C305.869 200.624 306.1 200.723 306.12 200.895L306.15 201.164C306.307 202.507 306.501 203.807 307.135 205.031C307.444 205.63 307.816 206.215 308.268 206.717C308.51 206.985 308.773 207.242 309.056 207.467C309.332 207.686 309.666 207.845 309.913 208.096L309.958 208.145L309.96 208.136C310.022 207.604 310.395 207.37 310.76 207.385C311.113 207.399 311.528 207.554 311.688 207.629L311.704 207.636C314.167 208.818 316.436 210.36 318.57 212.07C322.986 215.606 326.294 220.229 327.896 225.672C328.683 228.344 329.135 231.097 329.611 233.837L329.904 235.516C330.349 238.046 330.846 240.625 331.85 242.978C332.11 243.587 331.909 244.158 331.273 244.397C330.477 244.696 329.679 244.986 328.88 245.272C329.273 246.955 329.512 248.698 329.806 250.39C330.431 253.987 331.197 257.56 331.854 261.152C332.189 262.989 332.492 264.832 332.828 266.669C332.989 267.553 333.158 268.437 333.322 269.321C333.41 269.798 333.49 270.276 333.574 270.753L333.589 270.833C333.637 271.084 333.698 271.345 333.629 271.597C333.55 271.884 333.325 272.087 333.125 272.294C332.96 272.463 332.722 272.464 332.52 272.372L332.454 272.341C332.093 272.172 331.81 272.004 331.682 271.597C331.601 271.339 331.572 271.049 331.519 270.783C331.417 270.275 331.321 269.765 331.23 269.254C331.048 268.231 330.871 267.208 330.697 266.184L330.535 265.225C329.979 261.921 329.451 258.596 329.184 255.256C329.066 253.775 328.941 252.294 328.814 250.814L328.719 249.703C328.599 248.298 328.452 246.857 328.431 245.432L327.953 245.602L325.621 246.426C325.042 246.631 324.306 247.049 323.684 246.973C323.379 246.936 323.147 246.84 322.968 246.666C323.182 249.697 323.473 252.722 323.86 255.732C324.213 258.471 324.604 261.207 325.065 263.929C325.294 265.278 325.529 266.625 325.784 267.968C325.912 268.64 326.043 269.311 326.179 269.981C326.246 270.315 326.327 270.65 326.38 270.987C326.44 271.373 326.334 271.611 326.118 271.928C325.941 272.189 325.587 272.323 325.299 272.143C324.919 271.905 324.721 271.698 324.609 271.263C324.507 270.868 324.445 270.456 324.366 270.056C324.221 269.318 324.081 268.579 323.945 267.839C323.662 266.291 323.401 264.74 323.167 263.184C322.345 257.702 321.823 252.174 321.56 246.638C321.43 243.906 321.39 241.172 321.413 238.437C321.424 237.036 321.47 235.63 321.569 234.232C321.67 232.816 321.879 231.429 322.065 230.028C322.072 229.978 322.141 229.976 322.144 230.028C322.233 231.599 322.371 233.169 322.439 234.745C322.504 236.248 322.532 237.754 322.583 239.258C322.651 241.235 322.745 243.213 322.869 245.19C323.094 244.944 323.433 244.802 323.772 244.857C324.263 244.754 324.791 244.497 325.26 244.34L327.025 243.75C327.953 243.441 328.881 243.133 329.812 242.834C328.979 240.033 328.409 237.191 327.922 234.307L327.705 233.009C327.275 230.456 326.811 227.902 326.033 225.43C325.214 222.83 323.989 220.414 322.364 218.225C320.762 216.069 318.813 214.169 316.806 212.393C315.088 210.872 313.25 209.499 311.498 208.021C311.516 208.119 311.52 208.227 311.504 208.345C311.131 211.072 309.709 213.611 307.727 215.5C303.744 219.294 297.849 220.081 292.752 218.302C287.821 216.581 283.462 212.505 281.922 207.461C281.896 207.375 282.011 207.34 282.058 207.404C282.143 207.521 282.229 207.638 282.315 207.755C282.309 207.709 282.333 207.658 282.391 207.636C284.188 206.942 285.952 205.958 287.299 204.566C287.956 203.887 288.529 203.119 288.981 202.289C289.198 201.892 289.392 201.481 289.548 201.056L289.587 200.946C289.775 200.414 289.932 199.871 290.325 199.449Z" fill="black" />
</g>
<g id="HEAD">
<path id="â Skin_2" fill-rule="evenodd" clip-rule="evenodd" d="M314.619 176.998C314.369 173.755 314.757 170.356 313.509 167.274C311.334 162.16 305.233 160.454 300.504 158.507C298.609 157.946 292.234 157.868 290.015 157.125C284.994 155.445 283.795 153.442 279.805 156.642C279.132 157.189 278.71 157.783 278.403 158.595L278.415 158.598C278.328 158.936 278.422 159.274 278.62 159.532C276.89 161.304 276.166 163.96 277.053 166.319C279.95 172.457 279.814 175.776 278.88 182.374C277.662 188.535 280.447 190.785 285.059 194.137C284.871 194.502 284.832 194.986 285.077 195.308C290.41 202.819 300.466 206.404 309.082 202.593C312.579 201.033 314.14 197.3 315.031 193.933C316.069 190.162 316.388 186.188 315.543 182.347C315.202 180.57 314.758 178.807 314.619 176.998Z" fill="#D08B5B" />
<path id="bandana" fill-rule="evenodd" clip-rule="evenodd" d="M276.421 167.799L279.592 169.916L290.943 157.924L287.166 154.944C287.166 154.944 280.312 160.02 278.965 161.36C277.618 162.699 276.421 167.799 276.421 167.799Z" fill="#9FD8E5" />
<path id="ð Ink_2" fill-rule="evenodd" clip-rule="evenodd" d="M283.856 141.069C284.504 140.972 284.993 141.374 285.225 141.941L285.237 141.972C285.312 142.165 285.395 142.353 285.485 142.537C287.105 141.741 289.416 141.946 290.441 143.558C291.173 144.71 290.727 146.077 290.451 147.299L290.27 148.104C290.62 148.327 290.884 148.726 290.871 149.14L290.87 149.172L290.796 150.294C291.03 150.057 291.244 149.799 291.434 149.523C291.566 149.282 291.708 149.044 291.86 148.815C292.758 147.461 294.774 148.637 294.033 150.087C293.891 150.366 293.731 150.631 293.559 150.886C293.366 151.263 293.207 151.65 293.085 152.048C293.435 152.201 293.705 152.54 293.733 153.053C293.799 154.25 293.172 155.249 292.174 155.877C291.88 156.061 291.577 156.097 291.302 156.029C291.254 156.094 291.206 156.159 291.159 156.226C291.557 156.55 291.916 156.919 292.225 157.328C293.153 157.189 294.087 157.123 295.02 157.121C296.161 156.561 297.528 156.573 298.754 156.783C299.543 156.918 300.301 157.18 301.078 157.369C301.897 157.567 302.728 157.575 303.557 157.71C304.601 157.88 305.517 158.363 306.093 159.134C306.725 159.153 307.39 159.412 307.942 159.765C309.226 160.585 310.503 161.418 311.784 162.244C312.276 162.561 312.459 163.067 312.369 163.631L312.363 163.668L312.32 163.902L312.421 164.046C312.813 164.601 313.24 165.182 313.493 165.794C313.963 166.472 314.387 167.183 314.763 167.916C315.269 168.902 315.687 169.946 315.97 171.018C316.041 171.289 316.111 171.562 316.158 171.838C316.224 172.229 316.122 172.531 316.066 172.906C315.997 173.38 315.971 173.861 315.898 174.337C315.848 174.653 315.581 174.808 315.301 174.816C315.406 175.619 315.482 176.427 315.554 177.228C315.657 178.374 315.726 179.523 315.786 180.671C316.095 181.122 316.728 181.478 317.185 181.602C317.818 181.772 318.481 181.587 319.079 181.371C319.454 181.235 319.763 181.708 319.58 182.025C319.004 183.018 317.772 183.014 316.84 182.574C316.445 182.389 316.099 182.12 315.842 181.769C315.858 182.103 315.874 182.436 315.891 182.77L315.907 183.073C316.097 186.61 316.506 190.269 315.843 193.771C314.694 199.838 309.685 204.457 303.565 204.815C300.354 205.004 297.68 204.053 296.35 203.523C295.02 202.993 295.537 201.911 296.46 202.221C298.051 202.753 300.972 203.546 303.586 203.204C309.748 202.396 314.973 199.31 314.437 186.017C314.36 184.132 314.126 182.246 314.076 180.361C314.027 178.518 314.045 176.675 313.964 174.833L313.937 174.205C313.905 173.47 313.871 172.733 313.817 171.998C313.75 171.713 313.696 171.424 313.614 171.144C313.394 170.384 313.107 169.644 312.75 168.939C312.671 168.999 312.583 169.042 312.487 169.059C311.76 169.19 311.078 169.153 310.397 168.849C310.079 168.709 309.799 168.522 309.538 168.291C309.414 168.182 309.33 168.077 309.265 167.967C308.936 167.972 308.606 167.873 308.4 167.636C308.165 167.365 308.125 167.086 308.218 166.827L308.227 166.801L308.204 166.793C307.926 167.513 307.373 168.147 306.765 168.576C305.805 169.255 304.604 169.451 303.453 169.469C302.181 169.488 300.84 169.292 299.585 169.091C299.254 169.039 298.924 168.979 298.601 168.897C298.589 168.91 298.576 168.925 298.562 168.937C297.485 169.97 295.971 170.236 294.604 169.646C293.815 169.306 293.153 168.757 292.568 168.128C292.559 168.458 292.542 168.787 292.514 169.113L292.502 169.242C292.444 169.849 292.332 170.493 291.874 170.931C291.134 171.641 290.06 171.356 289.207 170.894C289.208 170.916 289.208 170.94 289.208 170.963C289.438 171.748 289.67 172.533 289.901 173.319L289.951 173.487C290.12 174.045 290.304 174.603 290.355 175.187C290.452 176.303 289.711 177.406 288.473 177.031C287.824 176.835 287.304 176.288 286.804 175.85L286.49 175.578C287.304 178.243 287.868 181.004 287.92 183.785C287.924 183.936 287.794 184.05 287.651 184.055C287.316 184.069 286.956 184.003 286.619 183.869C286.6 183.868 286.582 183.866 286.562 183.863C285.987 183.78 285.453 183.572 284.983 183.265C285.091 183.61 285.139 183.98 285.111 184.367C285.104 184.461 284.957 184.494 284.936 184.391C284.665 183.052 283.102 182.041 281.754 182.297C280.308 182.572 279.243 183.819 278.982 185.238C278.702 186.762 279.238 188.525 280.23 189.701C280.687 190.243 281.288 190.695 282.002 190.809C282.328 190.861 282.667 190.843 282.984 190.75C283.118 190.71 283.245 190.654 283.373 190.602C283.561 190.526 283.78 190.514 283.956 190.434C284.357 190.253 284.761 190.624 284.557 191.036C284.381 191.396 284.222 191.638 283.928 191.824C284.166 192.115 284.382 192.52 284.462 192.629C284.87 193.182 285.285 193.704 285.75 194.209C286.224 194.722 286.74 195.19 287.287 195.624L287.516 195.805C288.043 196.224 288.501 196.611 288.872 197.211C289.165 197.685 288.786 198.327 288.237 198.32C286.522 198.295 285.274 196.785 284.386 195.465C284.26 195.277 284.141 195.077 284.03 194.873C283.99 194.937 283.946 194.997 283.896 195.052L283.994 195.316C284.285 196.092 283.033 196.599 282.67 195.875C282.406 195.349 282.1 194.849 281.759 194.377C281.557 194.348 281.361 194.226 281.251 194.068C280.974 193.666 280.664 193.26 280.402 192.831C280.256 192.693 280.107 192.56 279.954 192.431C279.91 192.47 279.865 192.509 279.822 192.55C279.63 192.988 279.393 193.387 279.1 193.764L279.037 193.844C278.474 194.555 277.741 195.282 276.834 195.456C276.558 195.509 276.291 195.164 276.537 194.943C277.171 194.371 277.922 193.982 278.507 193.344C278.795 193.03 279.06 192.683 279.288 192.321L279.34 192.237C279.378 192.174 279.416 192.112 279.456 192.049C279.192 191.868 278.928 191.687 278.664 191.506C277.937 192.128 276.989 192.413 276.185 192.929L276.105 192.981C275.378 193.469 274.611 192.391 275.195 191.799C275.837 191.149 276.374 190.374 276.943 189.652C276.676 189.157 276.549 188.573 276.501 187.982C276.483 187.815 276.468 187.648 276.453 187.48C276.045 187.487 275.634 187.346 275.287 187.105L275.156 187.011C274.733 187.146 274.29 187.211 273.866 187.2C272.868 187.17 272.46 186.028 273.084 185.305C273.721 184.567 274.836 184.405 275.719 184.764C275.747 184.749 275.777 184.734 275.805 184.718C275.763 184.524 275.772 184.348 275.82 184.193L275.806 184.099C275.612 183.8 275.484 183.459 275.436 183.099C275.398 182.814 275.405 182.531 275.471 182.249C275.493 182.155 275.539 182.058 275.574 181.96C275.502 181.779 275.46 181.591 275.447 181.402C275.426 181.378 275.406 181.354 275.388 181.327C274.949 180.71 275.038 179.967 275.455 179.469C275.457 179.437 275.46 179.405 275.464 179.374C275.44 179.318 275.417 179.263 275.397 179.207C274.989 178.795 274.69 178.299 274.746 177.685C274.779 177.323 274.927 176.998 275.151 176.755C275.111 176.637 275.108 176.5 275.156 176.386C274.798 175.432 274.843 174.283 275.101 173.216C275.044 173.053 275.015 172.877 275.021 172.691C275.05 171.898 275.734 171.171 276.545 171.18C276.643 171.181 276.734 171.194 276.822 171.212L276.823 171.193C276.854 170.956 276.919 170.736 277.014 170.539C276.968 170.522 276.924 170.497 276.886 170.465C276.367 170.743 275.817 170.955 275.241 171.1C274.817 171.206 274.383 170.723 274.647 170.325C274.769 170.14 274.904 169.974 275.049 169.822C274.843 169.823 274.633 169.837 274.421 169.865C274.04 169.914 273.615 169.654 273.367 169.301C273.06 169.601 272.751 169.899 272.443 170.198C271.662 170.956 270.482 170.398 270.359 169.398C270.126 169.336 269.909 169.231 269.719 169.08C268.487 169.616 267.162 169.91 265.807 169.966C264.835 170.006 264.266 168.871 264.721 168.069C265.026 167.531 265.405 167.048 265.842 166.628C265.164 166.836 264.464 166.986 263.75 167.082C263.363 167.134 262.817 166.813 262.662 166.458C262.071 165.091 262.121 163.665 262.802 162.335C262.829 162.283 262.858 162.232 262.886 162.181C262.957 162.005 263.034 161.831 263.117 161.66C262.279 160.785 262.206 159.483 262.658 158.393C262.477 158.099 262.407 157.745 262.531 157.424C262.881 156.501 263.386 155.649 264.024 154.917C263.963 154.799 263.91 154.673 263.864 154.538C263.505 153.446 263.921 152.129 264.76 151.368C265.287 150.889 265.894 150.602 266.541 150.419C266.814 149.936 267.164 149.5 267.573 149.133C267.588 149.098 267.604 149.063 267.622 149.029C268.258 147.828 269.416 147.185 270.657 147.036C270.705 146.567 271.021 146.118 271.48 145.973C271.606 145.567 271.795 145.179 272.054 144.826C272.461 144.271 273.138 144.01 273.776 144.374C274.125 144.573 274.46 144.802 274.773 145.055C274.914 144.989 275.074 144.946 275.254 144.932L275.3 144.93L276.338 144.877C276.772 144.684 277.206 144.481 277.641 144.284C277.902 144.068 278.193 143.887 278.511 143.753C278.871 143.603 279.24 143.517 279.609 143.489C279.909 143.391 280.211 143.304 280.519 143.237C281.241 143.078 281.996 142.99 282.746 142.997C282.761 142.803 282.769 142.606 282.767 142.407L282.766 142.307C282.749 141.669 283.257 141.16 283.856 141.069ZM283.129 192.128C283.026 192.15 282.922 192.168 282.817 192.181C282.849 192.259 282.881 192.337 282.911 192.415C282.995 192.462 283.081 192.508 283.166 192.55C283.141 192.406 283.126 192.262 283.129 192.128ZM277.721 190.517L277.651 190.647C277.64 190.668 277.629 190.689 277.618 190.709C277.766 190.698 277.915 190.701 278.063 190.718L278.062 190.702C278.043 190.695 278.025 190.689 278.006 190.681C277.905 190.632 277.81 190.577 277.721 190.517ZM280.644 184.626C281.575 184.68 282.364 184.823 283.211 185.232L283.284 185.267C284.032 185.64 285.27 186.327 285.166 187.314C285.136 187.594 284.933 187.89 284.613 187.867C283.736 187.807 283.235 186.921 282.642 186.369C282.043 185.812 281.307 185.239 280.582 184.856C280.479 184.802 280.52 184.631 280.631 184.626L280.644 184.626ZM276.421 171.632C276.198 171.639 276.272 171.856 276.387 171.675C276.397 171.66 276.408 171.645 276.421 171.632ZM288.466 157.125C286.353 157.181 284.226 158.432 282.643 159.696C281.265 160.795 280.076 162.103 279.023 163.513C278.752 164.215 278.519 164.932 278.323 165.654C278.193 166.131 278.112 166.613 278.004 167.094L277.97 167.241C277.885 167.401 277.822 167.572 277.776 167.75C277.968 167.942 278.217 168.08 278.491 168.146C278.579 168.167 278.652 168.213 278.71 168.273C278.931 167.904 279.124 167.515 279.236 167.102L279.24 167.083C279.664 166.387 280.125 165.712 280.619 165.061C281.981 163.263 283.481 161.623 285.284 160.259C286.651 159.226 288.179 158.416 289.805 157.889C289.407 157.568 288.955 157.313 288.466 157.125Z" fill="black" />
</g>
<g id="FACE">
<path id="ð Ink_3" fill-rule="evenodd" clip-rule="evenodd" d="M305.012 196.32C304.303 196.03 303.671 195.548 303.208 194.931C303.047 194.717 303.006 194.491 303.039 194.284C303.077 194.051 303.215 193.84 303.403 193.699C303.591 193.557 303.827 193.487 304.054 193.523C304.252 193.554 304.449 193.662 304.605 193.887L304.638 193.932C304.913 194.304 305.271 194.609 305.68 194.806C306.073 194.995 306.513 195.084 306.969 195.032C307.836 194.934 308.434 194.465 309.07 193.828C309.148 193.748 309.227 193.665 309.306 193.581C309.356 193.504 309.426 193.455 309.503 193.429C309.588 193.401 309.685 193.402 309.774 193.433C309.859 193.463 309.936 193.52 309.987 193.595C310.036 193.666 310.063 193.755 310.054 193.856C309.996 194.517 309.651 195.106 309.161 195.569C308.616 196.082 307.894 196.438 307.215 196.563C306.466 196.7 305.703 196.601 305.012 196.32ZM307.568 186.134C308.365 186.618 309.578 187.747 308.721 188.948C307.713 190.006 306.261 188.793 305.545 188.244C304.881 187.819 304.136 188.912 304.751 189.409C309.923 193.238 312.021 186.261 307.971 185.565C307.525 185.488 307.359 185.985 307.568 186.134ZM298.301 181.681C298.389 180.588 300.053 180.34 300.219 181.421C300.367 182.39 300.192 183.279 299.756 184.151C299.339 184.984 298.292 184.595 298.213 183.837C298.106 182.82 298.247 182.36 298.301 181.681ZM310.966 181.197C311.198 180.893 311.533 180.686 311.934 180.803C313.188 181.169 312.818 182.949 312.378 183.816C312.139 184.286 311.365 184.405 311.016 183.991C310.446 183.316 310.174 181.967 310.898 181.301C310.917 181.267 310.939 181.232 310.966 181.197ZM299.738 176.901L299.936 176.866C300.549 176.76 301.311 176.658 301.744 177.151C301.974 177.412 302.053 177.897 301.744 178.147C301.201 178.587 300.6 178.417 299.949 178.454C299.412 178.485 298.896 178.574 298.379 178.721C297.245 179.046 296.321 179.637 295.352 180.287C295.225 180.372 295.095 180.21 295.156 180.091C295.715 178.996 296.799 178.096 297.884 177.548C298.464 177.255 299.098 177.012 299.738 176.901ZM309.823 176.41L309.975 176.441C311.624 176.786 313.767 177.475 314.548 179.095C314.578 179.324 314.547 179.373 314.521 179.405L314.513 179.416C314.491 179.443 314.475 179.481 314.375 179.512C314.348 179.506 314.32 179.499 314.292 179.491C313.934 179.397 313.65 179.268 313.376 179.134L313.079 178.987C312.734 178.818 312.386 178.655 312.017 178.535C311.23 178.278 310.42 178.097 309.598 178.001C309.42 177.98 309.248 177.92 309.113 177.817C308.984 177.719 308.886 177.583 308.842 177.403C308.784 177.17 308.8 176.994 308.925 176.784C309.019 176.626 309.154 176.516 309.308 176.454C309.466 176.39 309.645 176.374 309.823 176.41Z" fill="black" />
</g>
</g>
</svg>