<svg xmlns="http://www.w3.org/2000/svg" viewBox="1220.500 181.500 21.000 22.000"><g xmlns="http://www.w3.org/2000/svg" id="face/Eating Happy">
<path id="ð Ink_60" fill-rule="evenodd" clip-rule="evenodd" d="M1229.21 196.569C1229.8 195.599 1231.05 197.976 1231.19 198.385C1231.31 198.747 1231.38 199.118 1231.42 199.494C1231.88 199.596 1232.36 199.596 1232.83 199.507C1233.52 199.373 1233.95 198.998 1234.55 198.677C1234.97 198.455 1235.5 198.715 1235.72 199.084C1235.97 199.517 1235.81 199.968 1235.47 200.291C1234.83 200.904 1233.58 201.045 1232.75 200.882C1232.27 200.789 1231.83 200.61 1231.45 200.35C1231.44 200.399 1231.44 200.447 1231.44 200.496L1231.43 200.58C1231.37 201.26 1231.18 202.115 1230.65 202.558C1229.78 203.284 1228.71 201.887 1229.56 201.162L1229.58 201.141C1230.11 200.718 1230.22 199.583 1230.19 198.958C1230.17 198.551 1230.1 198.138 1229.97 197.749L1229.94 197.672C1229.91 197.562 1229.48 196.521 1229.33 196.654L1229.32 196.661C1229.26 196.736 1229.16 196.649 1229.21 196.569ZM1233.92 191.092C1234.71 191.576 1235.93 192.705 1235.07 193.905C1234.06 194.964 1232.61 193.75 1231.89 193.202C1231.23 192.776 1230.49 193.87 1231.1 194.367C1236.27 198.195 1238.37 191.219 1234.32 190.523C1233.87 190.446 1233.71 190.942 1233.92 191.092ZM1225.41 186.617C1226.19 186.479 1226.99 186.672 1227.63 187.128L1227.68 187.163C1228.3 187.617 1229 188.414 1228.64 189.196C1228.5 189.51 1228.07 189.559 1227.8 189.417C1227.34 189.18 1227.26 188.596 1226.86 188.274C1226.53 188.009 1226.08 187.848 1225.66 187.887C1224.66 187.978 1224.04 188.965 1223.73 189.816C1223.69 189.925 1223.53 189.967 1223.47 189.851C1222.73 188.48 1224.03 186.862 1225.41 186.617ZM1237.88 186.1C1239.37 185.977 1241.12 187.523 1240.72 189.097C1240.54 189.852 1239.42 189.83 1239.22 189.097C1239.11 188.693 1239.12 188.336 1238.83 188.001C1238.59 187.724 1238.25 187.563 1237.88 187.588C1237.48 187.615 1237.1 187.817 1236.82 188.1C1236.57 188.356 1236.41 188.731 1236.15 188.958C1236.08 189.014 1236 189.017 1235.93 188.958C1235.48 188.538 1235.75 187.663 1236.04 187.225C1236.45 186.597 1237.13 186.162 1237.88 186.1ZM1222.57 183.825C1223.53 182.978 1225.27 182.16 1226.56 182.577C1227.3 182.817 1227.62 184.012 1226.79 184.391C1225.84 184.829 1224.73 184.651 1223.75 185.105C1223.34 185.296 1222.96 185.535 1222.67 185.885C1222.45 186.161 1222.22 186.524 1221.89 186.683C1221.81 186.725 1221.69 186.726 1221.63 186.649C1220.91 185.842 1221.95 184.376 1222.57 183.825ZM1236.24 182.535C1236.83 182.369 1237.48 182.373 1238.08 182.477C1238.68 182.581 1239.29 182.83 1239.78 183.193L1239.84 183.235C1240.38 183.639 1241.02 184.225 1240.98 184.94C1240.95 185.536 1240.32 185.94 1239.78 185.627C1239.34 185.372 1239.13 184.861 1238.76 184.521C1238.45 184.241 1238.09 184.019 1237.7 183.864C1237.27 183.692 1236.84 183.611 1236.38 183.604C1236.03 183.598 1235.67 183.714 1235.32 183.751C1235.35 183.81 1235.07 183.783 1234.92 183.731C1234.8 183.681 1234.8 183.533 1234.84 183.437C1235.04 182.962 1235.77 182.666 1236.24 182.535Z" fill="black" />
</g>
</svg>