<svg xmlns="http://www.w3.org/2000/svg" viewBox="1307.500 184.000 20.000 21.500"><g xmlns="http://www.w3.org/2000/svg" id="face/Serious">
<path id="ð Ink_69" fill-rule="evenodd" clip-rule="evenodd" d="M1318.84 203.404L1319.06 203.344C1319.87 203.125 1320.7 202.776 1321.47 203.254C1321.75 203.426 1321.79 203.793 1321.57 204.031C1320.95 204.704 1320.03 204.573 1319.19 204.58L1319.14 204.58C1318.3 204.592 1317.45 204.55 1316.61 204.428C1316.5 204.412 1316.48 204.228 1316.58 204.184C1317.31 203.864 1318.07 203.611 1318.84 203.404ZM1320.2 191.092C1321 191.576 1322.21 192.705 1321.36 193.905C1320.35 194.964 1318.89 193.75 1318.18 193.202C1317.52 192.776 1316.77 193.87 1317.39 194.367C1322.56 198.195 1324.66 191.219 1320.61 190.523C1320.16 190.446 1319.99 190.942 1320.2 191.092ZM1325.74 184.725C1327.03 184.686 1327.03 186.727 1325.74 186.721C1325.36 186.72 1324.97 186.72 1324.59 186.719C1324.81 187.532 1324.68 188.502 1324.28 189.185C1324.02 189.636 1323.38 189.718 1323.01 189.349C1322.37 188.713 1322.24 187.782 1322.47 186.937L1322.42 186.827C1322.4 186.791 1322.39 186.754 1322.38 186.717C1321.14 186.718 1319.9 186.721 1318.66 186.723L1316.8 186.725C1315.59 186.726 1314.38 186.736 1313.17 186.724C1313.19 186.747 1313.2 186.769 1313.22 186.795C1313.29 186.954 1313.32 187.154 1313.35 187.326C1313.39 187.62 1313.38 187.937 1313.34 188.231C1313.3 188.445 1313.24 188.7 1313.12 188.902L1313.12 188.906C1313.06 189.146 1312.99 189.376 1312.81 189.548C1312.75 189.6 1312.7 189.637 1312.64 189.663C1312.53 189.777 1312.39 189.852 1312.21 189.854C1312.11 189.855 1312 189.827 1311.9 189.786C1311.74 189.8 1311.58 189.728 1311.44 189.664C1311.32 189.613 1311.22 189.545 1311.14 189.456C1311.1 189.447 1311.06 189.432 1311.02 189.407C1310.78 189.259 1310.69 188.961 1310.67 188.691C1310.67 188.675 1310.67 188.658 1310.67 188.641C1310.66 188.605 1310.66 188.568 1310.65 188.531C1310.57 188.053 1310.67 187.514 1310.77 187.049C1310.79 186.933 1310.82 186.798 1310.85 186.667C1310.61 186.658 1310.37 186.648 1310.12 186.639C1309.52 186.614 1308.78 186.695 1308.22 186.439C1308.18 186.421 1308.19 186.367 1308.22 186.346C1308.74 185.977 1309.54 185.917 1310.16 185.795L1310.22 185.785C1310.96 185.633 1311.7 185.505 1312.45 185.396C1313.89 185.186 1315.35 185.073 1316.8 184.991C1319.78 184.825 1322.76 184.816 1325.74 184.725Z" fill="black" />
</g>
</svg>