<svg xmlns="http://www.w3.org/2000/svg" viewBox="2301.500 456.000 134.000 158.000"><g xmlns="http://www.w3.org/2000/svg" id="pose/sitting/hands_back-2">
<path id="â Skin_95" fill-rule="evenodd" clip-rule="evenodd" d="M2331.85 552.521C2329.75 557.75 2327.25 563.686 2324.94 568.78C2325.13 570.394 2325.82 572.045 2325.28 573.661C2327.67 572.107 2330.35 571.131 2333.1 570.393L2333.25 571.426C2333.56 571.416 2334.11 571.411 2334.42 571.407C2334.37 570.996 2334.3 570.264 2334.27 569.85L2334.27 569.85C2333.89 565.399 2334.6 560.842 2335.48 556.492C2335.69 554.923 2335.17 552.484 2333.19 552.444C2332.9 552.489 2332.41 551.694 2332.23 551.539L2331.85 552.521ZM2359.51 612.68C2349.55 613.238 2343.85 605.083 2339.03 597.454C2338.52 597.79 2337.96 598.166 2337.45 598.47C2336.66 599.736 2335.06 600.12 2333.67 600.26C2328.73 600.513 2327.68 596.08 2326.45 592.267C2326.22 592.43 2325.7 593.264 2325.3 593.081C2323.09 592.59 2320.93 592.002 2318.58 592.149C2315.88 591.573 2301.9 597.729 2303.19 592.361C2303.82 590.026 2307.29 588.919 2309.08 587.308C2311.67 584.353 2311.04 580.551 2312.28 577.032C2313.31 573.502 2314.52 570.177 2316.75 566.932C2316.95 554.803 2317.41 539.959 2320.55 529.172C2322.55 521.602 2325.03 513.776 2324.07 505.833L2323.53 505.818C2323.3 505.684 2322.93 505.583 2322.64 505.627C2322.4 505.356 2321.94 505.439 2321.61 505.329C2321.01 499.718 2320.78 494.916 2321.54 489.826C2322.25 481.422 2327.55 477.985 2335.3 476.154C2343.81 473.362 2349.58 470.516 2354 463.573C2354.83 462.164 2355.34 460.496 2356.45 459.307C2359.21 455.815 2367.14 456.39 2369.19 460.068C2370.09 462.22 2370.17 464.731 2370.85 466.968C2373.52 476.468 2385.84 475.349 2392.35 480.543C2395.22 482.671 2396.15 485.956 2396.52 489.3C2396.99 493.505 2397.88 497.554 2397.77 501.734C2398.07 501.79 2398.75 501.577 2398.87 502.006C2398.6 502.909 2395.1 502.906 2394.13 503.066C2395.41 509.855 2394.25 516.673 2395.28 523.484C2396.87 531.136 2399.99 538.243 2402.45 545.636C2403.39 548.079 2404.02 550.698 2405.43 552.923L2405.4 552.942C2405.62 553.311 2405.87 553.67 2406.12 554.016C2406.38 554.11 2406.65 554.263 2406.91 554.357L2406.97 554.26L2407.11 554.447L2407.51 554.275C2408.11 554.574 2408.76 554.921 2409.4 555.285C2417.26 560.052 2422.4 564.888 2428.55 570.877L2427.74 571.539C2428.03 571.953 2428.39 572.501 2428.68 572.937C2428.92 572.724 2429.44 572.366 2429.74 572.243C2434.99 578.484 2435.63 589.303 2433.07 595.88C2432.26 597.851 2430.97 599.469 2429.42 600.832C2428.77 601.797 2427.62 603.129 2426.15 603.769C2426.15 603.769 2425.96 604.032 2425.96 604.041C2425.88 604.052 2425.39 604.162 2425.37 604.275C2421.44 604.936 2417.51 606.663 2413.44 606.688C2406.81 606.63 2401.11 601.247 2395.8 597.691C2392.43 595.292 2388.51 593.644 2384.88 592.04C2385.15 593.423 2385.07 593.897 2383.57 594.42C2382.23 594.953 2380.62 594.536 2379.37 593.95C2379.41 596.243 2379.59 598.532 2379.52 600.976C2379.52 603.935 2379.62 607.574 2376.43 608.94C2371 611.079 2364.87 612.615 2359.51 612.68Z" fill="#D08B5B" />
<path id="ð Top_29" fill-rule="evenodd" clip-rule="evenodd" d="M2345.67 472.74C2345.63 472.831 2345.66 472.952 2345.78 472.977C2345.98 473.018 2346.13 473.127 2346.24 473.276C2346.29 473.522 2346.36 473.766 2346.45 474.004C2346.48 474.053 2346.5 474.096 2346.53 474.134C2346.58 474.49 2346.58 474.854 2346.61 475.11C2346.69 475.979 2346.85 476.828 2347.09 477.668C2347.57 479.357 2348.32 480.98 2349.31 482.428C2351.31 485.333 2354.29 487.552 2357.71 488.448C2361.17 489.352 2365 488.973 2368.11 487.163C2370.98 485.489 2373.21 482.718 2373.86 479.423C2374.21 477.672 2374.15 475.889 2373.82 474.14C2373.77 473.86 2373.71 473.572 2373.65 473.282C2375.84 475.165 2378.65 476.32 2381.36 477.211L2381.65 477.306C2384.45 478.217 2387.31 478.999 2389.87 480.525C2391.08 481.252 2392.24 482.157 2393.08 483.308C2394.13 484.736 2394.58 486.399 2394.87 488.126C2395.25 490.447 2395.52 492.789 2395.79 495.125C2395.92 496.3 2396.04 497.477 2396.15 498.655C2396.21 499.278 2396.26 499.901 2396.31 500.526L2396.33 500.65C2396.36 501.034 2396.41 501.35 2396.54 501.652C2395.71 501.874 2394.87 502.041 2394.02 502.19C2393.02 502.369 2392.01 502.472 2391 502.534C2390.47 502.566 2389.95 502.577 2389.43 502.585C2389.17 502.589 2388.91 502.583 2388.64 502.585C2388.5 502.586 2388.37 502.626 2388.25 502.652C2388.36 498.943 2386.89 500.058 2386.59 504.355L2386.56 504.685C2386.27 509.006 2385.96 513.326 2385.69 517.65L2385.67 518.023C2385.45 521.873 2385.39 525.757 2386.04 529.572C2386.37 531.494 2386.92 533.357 2387.7 535.147C2388.46 536.912 2389.54 538.507 2390.42 540.213C2391.22 541.775 2391.79 543.477 2391.43 545.146C2391.31 545.729 2391.1 546.306 2390.81 546.755C2390.81 546.805 2390.8 546.859 2390.77 546.914C2390.49 547.54 2389.8 547.903 2389.21 548.185C2388.57 548.487 2387.92 548.751 2387.28 549.036L2387.04 549.144C2385.96 549.632 2384.85 550.012 2383.72 550.283C2383.7 550.292 2383.68 550.301 2383.66 550.31C2381.81 551.05 2379.92 551.676 2378.01 552.208C2374.12 553.289 2370.14 553.98 2366.14 554.432C2362.26 554.869 2358.36 555.119 2354.46 555.237C2350.92 555.345 2347.32 555.267 2343.83 554.621C2341.34 554.158 2338.88 553.392 2336.63 552.228C2336.45 551.943 2336.19 551.7 2335.98 551.433C2336.01 551.004 2335.75 550.525 2335.35 550.373C2335.2 550.034 2335.08 549.682 2335 549.32C2335.09 548.434 2335.21 547.552 2335.39 546.666C2335.71 545.123 2336.11 543.599 2336.52 542.079L2336.68 541.509C2337.65 537.943 2338.43 534.388 2338.56 530.68C2338.69 526.925 2338.31 523.183 2337.8 519.469C2337.3 515.886 2336.71 512.316 2336.07 508.756L2335.97 508.195C2335.63 506.331 2334.2 503.745 2334.35 505.077C2334.06 505.011 2333.75 505.05 2333.41 505.056C2332.85 505.068 2332.3 505.062 2331.75 505.065L2330.09 505.072L2328.42 505.08C2326.52 505.088 2324.61 505.117 2322.71 505.254C2322.59 505.225 2322.47 505.197 2322.35 505.161C2321.9 505.024 2321.75 504.699 2321.72 504.244C2321.65 503.103 2321.81 501.919 2321.83 500.774C2321.85 499.678 2321.85 498.583 2321.82 497.488L2321.81 497.123C2321.78 496.327 2321.86 495.35 2321.4 494.658C2321.45 494.027 2321.5 493.396 2321.57 492.768C2321.81 490.407 2322.24 488.036 2322.97 485.773C2323.5 484.138 2324.37 482.638 2325.61 481.446C2328.06 479.111 2331.44 478.187 2334.6 477.261C2338.42 476.14 2342.23 474.761 2345.67 472.74ZM2346.17 472.439C2346.17 472.515 2346.17 472.592 2346.17 472.668C2346.07 472.642 2345.97 472.627 2345.86 472.628C2345.96 472.567 2346.07 472.501 2346.17 472.439Z" fill="#8FA7DF" />
<path id="ð Shoes_8" fill-rule="evenodd" clip-rule="evenodd" d="M2333.86 570.122L2333.93 570.619L2334.31 570.613L2334.39 571.333C2334.42 571.695 2334.47 572.05 2334.52 572.4C2334.59 572.912 2334.67 573.428 2334.77 573.949L2334.81 574.172L2334.9 574.642L2334.53 574.941C2334.11 575.276 2333.71 575.699 2333.24 576.268C2332.48 577.192 2331.9 578.267 2331.48 579.461C2331.09 580.587 2330.91 581.769 2330.94 582.932C2330.96 583.5 2331.05 584.05 2331.21 584.589C2331.25 584.734 2331.29 584.869 2331.34 584.996L2331.36 585.059L2331.5 585.412L2331.31 585.74C2331.22 585.892 2331.22 586.049 2331.27 586.137L2331.27 586.15L2338.44 596.617L2338.92 597.326L2338.23 597.763C2338.17 597.801 2338.11 597.844 2338.03 597.894L2337.96 597.947L2337.57 598.225L2337.14 598.004C2337.07 597.97 2336.99 597.957 2336.93 597.969C2336.69 598.017 2336.52 598.096 2336.24 598.289L2335.96 598.491C2335.75 598.634 2335.58 598.742 2335.38 598.842C2334.9 599.083 2334.12 599.284 2333.58 599.317C2332.8 599.364 2332.31 599.305 2331.59 599.075C2331.01 598.891 2330.42 598.56 2330 598.175C2329.12 597.361 2328.63 596.419 2328.07 594.768L2328.04 594.69L2327.88 594.218L2327.73 593.757C2327.3 592.431 2327.02 591.722 2326.62 591.01C2326.3 590.441 2325.92 589.944 2325.5 589.566L2325.47 589.537C2325.38 589.464 2325.27 589.385 2325.1 589.269L2324.92 589.146C2324.31 588.733 2324 588.467 2323.75 588.027C2323.52 587.628 2323.4 587.183 2323.31 586.586L2323.28 586.381C2323.27 586.331 2323.27 586.275 2323.26 586.184L2323.22 585.884C2323.21 585.824 2323.21 585.774 2323.2 585.728L2323.19 585.663L2323.18 585.605C2323.09 584.983 2323.02 584.352 2322.97 583.712L2322.95 583.498L2322.94 583.334L2322.93 583.133C2322.74 579.891 2323.18 577.256 2324.54 575.133C2325.46 573.708 2326.74 572.665 2328.41 571.871L2328.51 571.822L2328.62 571.773C2329.72 571.263 2330.82 570.916 2332.73 570.414L2333 570.344L2333.86 570.122ZM2378.45 589.156L2379.86 589.866L2380.05 589.961C2380.92 590.391 2381.77 590.757 2383.28 591.366L2383.88 591.61L2385.36 592.203L2384 593.022C2383.92 593.065 2383.85 593.115 2383.75 593.193L2383.5 593.38L2383.43 593.435C2383.36 593.487 2383.3 593.53 2383.23 593.575C2382.76 593.896 2382.28 594.147 2381.81 594.313C2381.14 594.546 2380.45 594.626 2379.74 594.563L2379.66 594.556L2379.01 594.489L2378.96 593.834C2378.88 592.868 2378.78 591.915 2378.67 590.976L2378.63 590.624L2378.45 589.156Z" fill="white" />
<path id="ð Ink_152" fill-rule="evenodd" clip-rule="evenodd" d="M2428.66 572.083C2428.47 571.799 2428.28 571.517 2428.08 571.238C2428.32 571.493 2428.55 571.751 2428.77 572.013C2428.73 572.033 2428.7 572.057 2428.66 572.083ZM2406.81 553.775C2406.78 553.747 2406.74 553.723 2406.69 553.704C2406.58 553.659 2406.47 553.611 2406.36 553.566C2406.15 553.278 2405.96 552.983 2405.77 552.681C2406.16 553.08 2406.54 553.467 2406.96 553.83C2406.91 553.812 2406.86 553.794 2406.81 553.775ZM2403.22 552.236C2401.44 551.287 2399.64 550.364 2397.84 549.459C2397.69 549.381 2397.54 549.383 2397.41 549.435C2396.64 549.037 2395.86 548.645 2395.07 548.273C2394.6 548.047 2394.11 547.834 2393.63 547.619C2393.6 547.564 2393.56 547.507 2393.54 547.446C2393.25 546.831 2393.52 546.067 2393.71 545.463C2393.75 545.311 2393.73 545.179 2393.67 545.076C2393.77 544.193 2393.74 543.305 2393.56 542.504C2393.15 540.597 2392.13 538.858 2391.15 537.191C2390.16 535.479 2389.28 533.759 2388.71 531.853C2387.58 528.027 2387.49 524.022 2387.57 520.063C2387.66 515.666 2387.92 511.269 2388.09 506.875C2388.14 505.565 2388.2 504.255 2388.24 502.944C2388.34 503.005 2388.42 503.068 2388.58 503.113C2388.82 503.186 2389.08 503.246 2389.33 503.305C2389.83 503.424 2390.34 503.506 2390.86 503.577C2391.82 503.709 2392.78 503.77 2393.75 503.756C2393.87 503.754 2393.99 503.751 2394.1 503.746C2393.54 506.593 2393.58 509.608 2393.53 512.486C2393.47 515.814 2393.3 519.174 2393.67 522.491C2394.04 525.732 2394.99 528.827 2396.04 531.904C2397.11 535.071 2398.22 538.228 2399.27 541.404C2399.86 543.196 2400.45 544.988 2401.04 546.779C2401.33 547.642 2401.61 548.505 2401.9 549.367C2402.21 550.311 2402.37 551.421 2403.16 552.082C2403.24 552.155 2403.34 552.21 2403.45 552.249C2403.47 552.286 2403.48 552.322 2403.5 552.359C2403.41 552.318 2403.31 552.277 2403.22 552.236ZM2391.44 545.143C2391.31 545.726 2391.1 546.303 2390.81 546.752C2390.81 546.802 2390.8 546.856 2390.78 546.911C2390.49 547.536 2389.8 547.9 2389.21 548.182C2388.5 548.522 2387.76 548.814 2387.04 549.141C2385.96 549.629 2384.86 550.009 2383.72 550.28C2383.7 550.289 2383.68 550.298 2383.66 550.306C2381.81 551.047 2379.92 551.672 2378.01 552.205C2374.13 553.286 2370.14 553.977 2366.14 554.429C2362.26 554.865 2358.36 555.115 2354.46 555.234C2350.92 555.342 2347.33 555.264 2343.84 554.618C2341.34 554.154 2338.88 553.389 2336.63 552.225C2336.45 551.94 2336.19 551.697 2335.98 551.43C2336.01 551.001 2335.75 550.522 2335.36 550.37C2335.2 550.031 2335.09 549.679 2335 549.317C2335.09 548.431 2335.22 547.549 2335.4 546.663C2335.75 544.927 2336.22 543.215 2336.68 541.506C2337.65 537.94 2338.43 534.385 2338.56 530.677C2338.69 526.922 2338.32 523.179 2337.8 519.465C2337.28 515.694 2336.65 511.937 2335.97 508.191C2335.59 506.062 2335.22 503.928 2334.81 501.801C2334.4 499.65 2334.07 497.457 2333.54 495.333C2333.52 495.265 2333.41 495.277 2333.41 495.351C2333.49 497.26 2333.75 499.174 2333.94 501.076C2334.07 502.41 2334.21 503.742 2334.35 505.074C2334.06 505.008 2333.75 505.047 2333.41 505.053C2332.86 505.065 2332.3 505.059 2331.75 505.062C2330.64 505.066 2329.53 505.071 2328.43 505.077C2326.52 505.085 2324.61 505.113 2322.71 505.251C2322.59 505.222 2322.48 505.194 2322.36 505.158C2321.9 505.021 2321.76 504.696 2321.73 504.241C2321.65 503.1 2321.81 501.916 2321.83 500.771C2321.85 499.553 2321.85 498.336 2321.81 497.12C2321.78 496.324 2321.86 495.347 2321.4 494.655C2321.45 494.024 2321.5 493.393 2321.57 492.765C2321.82 490.404 2322.24 488.033 2322.97 485.77C2323.5 484.135 2324.37 482.635 2325.62 481.443C2328.06 479.108 2331.44 478.184 2334.6 477.258C2338.42 476.137 2342.23 474.758 2345.67 472.737C2345.63 472.828 2345.66 472.949 2345.78 472.974C2345.98 473.015 2346.13 473.124 2346.24 473.272C2346.29 473.519 2346.36 473.763 2346.46 474.001C2346.48 474.05 2346.5 474.093 2346.53 474.131C2346.58 474.487 2346.58 474.85 2346.61 475.107C2346.69 475.976 2346.85 476.825 2347.09 477.665C2347.57 479.353 2348.32 480.977 2349.32 482.425C2351.31 485.33 2354.29 487.548 2357.71 488.445C2361.17 489.349 2365 488.97 2368.11 487.16C2370.98 485.486 2373.21 482.715 2373.86 479.42C2374.21 477.669 2374.15 475.886 2373.82 474.137C2373.77 473.857 2373.71 473.569 2373.65 473.279C2375.84 475.162 2378.65 476.317 2381.36 477.208C2384.26 478.16 2387.23 478.943 2389.87 480.522C2391.08 481.249 2392.24 482.154 2393.08 483.305C2394.13 484.733 2394.58 486.396 2394.87 488.123C2395.25 490.444 2395.53 492.786 2395.79 495.122C2395.92 496.297 2396.04 497.474 2396.15 498.652C2396.21 499.275 2396.27 499.898 2396.32 500.523C2396.35 500.964 2396.4 501.315 2396.54 501.649C2395.71 501.871 2394.87 502.038 2394.03 502.187C2393.03 502.366 2392.01 502.469 2391 502.531C2390.48 502.563 2389.95 502.573 2389.43 502.582C2389.17 502.586 2388.91 502.58 2388.65 502.582C2388.5 502.583 2388.38 502.623 2388.25 502.649C2388.36 498.94 2388.4 495.227 2388.18 491.522C2388.17 491.428 2388.02 491.394 2388 491.499C2387.26 495.855 2386.87 500.276 2386.57 504.682C2386.27 509.003 2385.96 513.323 2385.7 517.647C2385.46 521.619 2385.37 525.631 2386.05 529.569C2386.38 531.49 2386.92 533.354 2387.7 535.144C2388.46 536.909 2389.54 538.504 2390.42 540.21C2391.22 541.772 2391.79 543.474 2391.44 545.143ZM2385.93 585.222C2384.36 584.767 2382.88 584.114 2381.42 583.389C2380.01 582.69 2378.52 581.945 2377.33 580.913C2377.3 580.89 2377.33 580.843 2377.36 580.855C2378.83 581.38 2380.23 582.16 2381.66 582.789C2383.15 583.441 2384.67 584.013 2386.17 584.652C2386.5 584.794 2386.26 585.317 2385.93 585.222ZM2382.79 592.92C2382.41 593.18 2381.98 593.415 2381.55 593.568C2380.95 593.778 2380.35 593.832 2379.75 593.771C2379.66 592.69 2379.55 591.608 2379.41 590.53C2380.77 591.212 2382.18 591.778 2383.59 592.346C2383.31 592.513 2383.07 592.732 2382.79 592.92ZM2377.26 587.35C2377.22 587.786 2376.63 587.777 2376.58 587.35C2376.36 585.417 2376.24 583.468 2376.05 581.531C2375.71 578.096 2375.14 574.716 2374.35 571.354C2374.16 570.506 2373.95 569.659 2373.72 568.818C2373.6 568.382 2373.2 567.616 2373.47 567.17C2373.81 566.621 2374.27 567.398 2373.91 567.442C2373.87 567.446 2373.87 567.395 2373.9 567.383C2373.63 567.493 2373.82 567.742 2373.89 567.938C2373.96 568.128 2374.03 568.316 2374.1 568.505C2374.24 568.884 2374.37 569.263 2374.51 569.644C2374.79 570.469 2375.06 571.298 2375.29 572.138C2375.75 573.781 2376.16 575.443 2376.47 577.12C2377.09 580.465 2377.57 583.944 2377.26 587.35ZM2337.5 597.303C2337.28 597.188 2337.01 597.147 2336.78 597.195C2336 597.35 2335.69 597.8 2335.02 598.139C2334.63 598.338 2333.95 598.504 2333.54 598.529C2332.85 598.57 2332.46 598.523 2331.83 598.323C2331.37 598.178 2330.88 597.908 2330.54 597.594C2329.63 596.762 2329.19 595.61 2328.79 594.44C2328.35 593.15 2327.98 591.816 2327.31 590.623C2326.97 590.024 2326.54 589.445 2326.03 588.982C2325.55 588.542 2324.77 588.222 2324.44 587.639C2324.1 587.038 2324.07 586.166 2323.97 585.49C2323.86 584.812 2323.79 584.129 2323.74 583.446C2323.55 580.786 2323.73 577.868 2325.21 575.562C2327.07 572.669 2330.44 571.829 2333.56 571.019C2333.61 571.517 2333.66 572.014 2333.73 572.51C2333.82 573.117 2333.92 573.723 2334.03 574.325C2333.47 574.774 2332.98 575.348 2332.63 575.768C2331.79 576.79 2331.17 577.956 2330.74 579.205C2330.32 580.408 2330.12 581.684 2330.15 582.958C2330.17 583.59 2330.27 584.208 2330.45 584.815C2330.5 584.983 2330.56 585.164 2330.63 585.347C2330.41 585.73 2330.36 586.224 2330.62 586.599C2332.91 589.944 2335.2 593.288 2337.49 596.632C2337.6 596.786 2337.7 596.941 2337.81 597.096C2337.7 597.162 2337.6 597.232 2337.5 597.303ZM2333.54 570.849C2333.38 570.851 2333.22 570.856 2333.06 570.86C2333.22 570.817 2333.38 570.773 2333.53 570.73C2333.54 570.77 2333.54 570.809 2333.54 570.849ZM2333.45 569.658C2332.03 570.046 2330.62 570.446 2329.24 570.973C2328.44 571.281 2327.49 571.612 2326.69 572.098C2326.45 572.211 2326.22 572.333 2325.99 572.467C2326.02 572.301 2326.02 572.125 2325.98 571.947C2325.8 571.117 2325.66 570.277 2325.5 569.441C2325.49 569.351 2325.47 569.17 2325.43 568.961C2325.58 568.686 2325.7 568.386 2325.83 568.088C2326.06 567.547 2326.3 567.004 2326.53 566.463C2326.97 565.443 2327.41 564.423 2327.85 563.404C2328.76 561.315 2329.66 559.22 2330.52 557.114C2331.11 555.686 2331.7 554.257 2332.27 552.819C2332.42 553.004 2332.67 553.13 2333 553.143C2334.6 553.2 2334.81 555.314 2334.68 556.488C2334.58 557.381 2334.34 558.26 2334.17 559.143C2334 560.045 2333.86 560.951 2333.74 561.86C2333.39 564.445 2333.29 567.059 2333.45 569.658ZM2320.07 590.665C2318.14 590.552 2316.19 590.738 2314.3 591.164C2312.47 591.576 2310.7 592.19 2308.87 592.6C2307.98 592.799 2307.07 592.936 2306.16 592.957C2305.72 592.967 2305.27 592.955 2304.84 592.906C2304.78 592.899 2304.71 592.88 2304.64 592.862C2304.77 592.477 2304.99 592.154 2305.31 591.83C2305.76 591.379 2306.14 591.13 2306.69 590.774C2307.81 590.057 2308.98 589.407 2309.91 588.436C2311.09 587.193 2311.65 585.598 2311.95 583.932C2312.26 582.147 2312.46 580.344 2312.77 578.557C2313.01 577.081 2313.3 575.605 2313.65 574.148C2314.06 572.864 2314.59 571.621 2315.2 570.413C2315.66 569.486 2316.18 568.59 2316.68 567.685C2317.1 568.074 2317.73 568.002 2318.08 567.499C2318.25 567.266 2318.44 567.04 2318.52 566.76C2318.59 566.493 2318.57 566.185 2318.57 565.912C2318.57 565.398 2318.58 564.884 2318.58 564.369C2318.59 563.307 2318.6 562.244 2318.62 561.182C2318.65 559.125 2318.69 557.068 2318.76 555.011C2318.9 550.875 2319.12 546.741 2319.59 542.627C2320.5 534.55 2322.83 526.728 2323.83 518.665C2323.95 517.673 2324.06 516.67 2324.14 515.66C2324.57 512.559 2324.65 509.413 2324.36 506.29C2327.76 506.26 2331.15 506.431 2334.53 506.801C2334.94 510.6 2335.41 514.387 2335.89 518.175C2336.36 521.881 2336.77 525.618 2336.73 529.359C2336.7 531.199 2336.58 533.044 2336.28 534.861C2335.98 536.616 2335.54 538.34 2335.07 540.055C2334.59 541.773 2334.08 543.483 2333.66 545.216C2333.03 546.809 2332.34 548.378 2331.63 549.938C2329.83 553.874 2327.98 557.78 2326.22 561.732C2325.72 562.874 2325.22 564.017 2324.71 565.159C2324.46 565.731 2324.21 566.303 2323.95 566.874C2323.67 567.517 2323.3 568.145 2323.31 568.864C2323.31 569.293 2323.56 569.605 2323.9 569.743C2323.76 570.573 2323.71 571.415 2323.7 572.256C2323.69 572.758 2324.02 573.172 2324.46 573.333C2324.46 573.442 2324.46 573.55 2324.45 573.658C2324.45 573.665 2324.44 573.671 2324.43 573.676C2322.14 575.995 2321.52 579.356 2321.54 582.501C2321.55 584.145 2321.71 585.804 2321.99 587.423C2322.17 588.416 2322.6 589.236 2323.39 589.865C2323.96 590.309 2324.6 590.738 2324.96 591.278C2325.04 591.39 2325.11 591.503 2325.18 591.618C2323.6 590.958 2321.73 590.761 2320.07 590.665ZM2346.17 472.436C2346.17 472.512 2346.17 472.589 2346.17 472.665C2346.08 472.638 2345.97 472.624 2345.86 472.625C2345.97 472.564 2346.07 472.498 2346.17 472.436ZM2433.27 577.364C2432.51 575.35 2431.38 573.533 2430.02 571.867C2428.66 570.191 2427.1 568.691 2425.5 567.243C2423.82 565.715 2422.11 564.21 2420.38 562.727C2416.99 559.807 2413.44 557.012 2409.54 554.801C2409.54 554.799 2409.54 554.797 2409.54 554.795C2409.53 554.792 2409.53 554.789 2409.52 554.786C2408.89 554.428 2408.24 554.082 2407.59 553.756C2407.43 553.677 2407.28 553.682 2407.15 553.737C2407.14 553.733 2407.14 553.727 2407.14 553.724C2406.67 553.286 2406.18 552.896 2405.67 552.508C2405.25 551.787 2404.9 551.029 2404.63 550.231C2404.6 550.152 2404.56 550.089 2404.51 550.035C2404.4 549.746 2404.29 549.459 2404.18 549.171C2403.9 548.381 2403.62 547.589 2403.34 546.798C2402.77 545.216 2402.21 543.633 2401.65 542.051C2400.52 538.89 2399.43 535.713 2398.34 532.539C2397.31 529.558 2396.25 526.564 2395.73 523.445C2395.19 520.218 2395.31 516.896 2395.27 513.636C2395.25 511.755 2395.23 509.868 2395.14 507.989C2395.06 506.552 2394.97 505.12 2394.71 503.712C2395.44 503.658 2396.17 503.56 2396.9 503.434C2397.7 503.295 2399.37 503.194 2399.33 502.052C2399.32 501.622 2398.99 501.322 2398.59 501.213C2398.5 501.186 2398.4 501.176 2398.31 501.175C2398.39 500.455 2398.22 499.675 2398.15 498.964C2398.04 497.89 2397.93 496.816 2397.81 495.744C2397.57 493.584 2397.29 491.427 2396.98 489.275C2396.69 487.322 2396.4 485.357 2395.49 483.579C2394.79 482.228 2393.76 481.052 2392.58 480.113C2387.64 476.209 2380.96 476.112 2375.76 472.713C2374.42 471.834 2373.22 470.733 2372.35 469.375C2371.86 468.597 2371.52 467.76 2371.29 466.871C2371.14 466.297 2370.99 465.736 2370.81 465.171C2370.63 464.62 2370.58 464.167 2370.24 463.681C2370.2 463.628 2370.12 463.647 2370.12 463.713C2370.08 464.215 2370.17 464.656 2370.2 465.156C2370.22 465.677 2370.21 466.19 2370.26 466.715C2370.27 466.846 2370.29 466.978 2370.3 467.109C2370.29 467.141 2370.27 467.176 2370.26 467.213C2370.02 467.984 2370.15 468.818 2370.56 469.483C2370.56 469.553 2370.56 469.624 2370.58 469.694C2370.79 470.463 2371.16 471.174 2371.44 471.92C2371.71 472.628 2371.93 473.352 2372.11 474.088C2372.44 475.477 2372.57 476.905 2372.43 478.329C2372.13 481.382 2370.32 483.983 2367.79 485.64C2364.97 487.48 2361.4 487.938 2358.16 487.14C2354.85 486.327 2352.12 484.217 2350.19 481.453C2349.12 479.917 2348.3 478.192 2347.79 476.39C2347.59 475.7 2347.47 474.974 2347.29 474.278C2347.47 474.177 2347.58 473.98 2347.47 473.721C2347.2 473.041 2347.15 472.372 2347.36 471.675C2349.23 470.405 2350.97 468.92 2352.46 467.209C2353.93 465.508 2355.46 463.441 2356.1 461.256C2356.35 460.397 2355.06 459.823 2354.64 460.639C2354.17 461.53 2353.79 462.449 2353.28 463.32C2352.77 464.198 2352.18 465.031 2351.53 465.813C2350.24 467.37 2348.74 468.76 2347.1 469.945C2343.45 472.589 2339.22 474.287 2334.94 475.615C2331.62 476.644 2328.15 477.54 2325.4 479.768C2322.36 482.225 2321.31 486.088 2320.74 489.796C2320.5 491.365 2320.36 492.943 2320.3 494.526C2320.23 494.653 2320.22 494.801 2320.28 494.941C2320.19 497.911 2320.36 500.894 2320.64 503.852C2320.64 504.165 2320.67 504.474 2320.74 504.767C2320.77 505.093 2320.8 505.419 2320.84 505.744C2320.85 505.826 2320.89 505.882 2320.97 505.911C2321.27 506.018 2321.57 506.083 2321.87 506.103C2321.92 506.121 2321.97 506.137 2322.03 506.151C2322.11 506.26 2322.24 506.333 2322.43 506.328C2322.53 506.324 2322.63 506.322 2322.74 506.319C2322.86 506.353 2322.97 506.394 2323.08 506.452C2323.16 506.495 2323.25 506.514 2323.32 506.516C2323.46 508.026 2323.5 509.539 2323.46 511.049C2323.35 513.174 2323.08 515.29 2322.67 517.41C2321.9 521.342 2320.78 525.205 2319.76 529.077C2317.66 537.063 2316.68 545.233 2316.31 553.471C2316.2 555.799 2316.15 558.131 2316.11 560.461C2316.09 561.593 2316.08 562.724 2316.07 563.856C2316.06 564.438 2316.06 565.02 2316.05 565.604C2316.05 565.876 2316.03 566.154 2316.05 566.425C2316.05 566.493 2316.06 566.555 2316.07 566.616C2316.07 566.618 2316.07 566.62 2316.07 566.624C2314.97 568.127 2314.13 569.861 2313.39 571.566C2312.64 573.309 2312 575.1 2311.5 576.933C2311.01 578.77 2310.65 580.624 2310.3 582.493C2310.01 584.051 2309.68 585.778 2308.47 586.913C2307.56 587.77 2306.3 588.347 2305.23 589.042C2304 589.835 2302.91 590.804 2302.42 592.222C2302.09 593.205 2302.25 594.333 2303.25 594.848C2304.1 595.291 2305.31 595.257 2306.25 595.214C2308.24 595.121 2310.17 594.583 2312.08 594.043C2314.17 593.449 2316.24 592.907 2318.43 592.848C2319.52 592.818 2320.63 592.87 2321.71 593.041C2322.83 593.217 2323.91 593.592 2325.03 593.772C2325.4 593.833 2325.78 593.754 2326.02 593.501C2326.74 595.513 2327.14 597.706 2328.78 599.258C2330.03 600.45 2331.82 601.058 2333.54 600.958C2334.47 600.903 2335.35 600.677 2336.19 600.269C2336.59 600.074 2336.95 599.822 2337.3 599.543C2337.51 599.372 2337.66 599.187 2337.76 598.983C2338.07 598.793 2338.38 598.597 2338.69 598.395C2340.4 600.95 2342.11 603.526 2344.03 605.928C2346.2 608.645 2348.82 610.867 2352.09 612.135C2355.13 613.317 2358.5 613.55 2361.73 613.274C2365.14 612.983 2368.49 612.208 2371.76 611.219C2373.36 610.736 2375.02 610.289 2376.53 609.579C2378.15 608.822 2379.27 607.489 2379.65 605.733C2380.02 604.008 2379.98 602.163 2379.99 600.407C2380 598.594 2379.96 596.778 2379.84 594.97C2379.84 594.965 2379.84 594.96 2379.84 594.955C2380.43 595.196 2381.08 595.323 2381.71 595.356C2382.36 595.389 2383.02 595.307 2383.62 595.078C2384.34 594.804 2385.33 594.354 2385.46 593.501C2385.48 593.376 2385.48 593.244 2385.47 593.115C2385.91 593.299 2386.34 593.489 2386.77 593.688C2388.11 594.311 2389.45 594.946 2390.76 595.62C2391.42 595.956 2392.07 596.326 2392.74 596.642C2392.92 596.726 2393.1 596.82 2393.28 596.915C2393.95 597.359 2394.6 597.813 2395.26 598.275C2397.12 599.582 2398.95 600.919 2400.81 602.212C2402.73 603.543 2404.68 604.856 2406.81 605.831C2408.99 606.831 2411.31 607.469 2413.73 607.379C2416.3 607.284 2418.82 606.555 2421.3 605.915C2422.54 605.596 2423.78 605.277 2425.02 604.957C2425.2 605.034 2425.41 605.023 2425.58 604.851C2425.6 604.834 2425.61 604.817 2425.63 604.8C2425.81 604.755 2425.99 604.708 2426.17 604.663C2426.24 604.555 2426.32 604.445 2426.4 604.337C2427.76 603.693 2428.9 602.536 2429.77 601.253C2429.84 601.197 2429.9 601.143 2429.97 601.086C2431.5 599.74 2432.69 598.07 2433.48 596.194C2435.07 592.443 2435.16 588.201 2434.73 584.205C2434.48 581.887 2434.1 579.554 2433.27 577.364Z" fill="black" />
</g>
</svg>