<svg xmlns="http://www.w3.org/2000/svg" viewBox="957.000 218.000 88.000 81.500"><g xmlns="http://www.w3.org/2000/svg" id="body/Tee Selena">
<path id="â Skin_33" fill-rule="evenodd" clip-rule="evenodd" d="M1013.36 297.993C1004.8 298.017 999.669 297.916 989.987 297.776C978.78 297.48 975.76 298.013 969.482 296.78C968.522 296.576 967.792 296.267 967.051 295.837C966.786 296.137 966.336 296.583 965.908 296.288C965.121 295.767 965.482 293.95 965.287 292.923C964.963 283.885 964.446 274.577 966.214 265.648C965.142 265.3 958.864 262.718 958.522 261.852C964.199 247.008 976.653 229.636 993.038 230.291C993.368 230.697 993.661 231.298 994.027 231.712C996.254 230.878 999.347 230.042 999.5 226.83C999.885 224.686 1000.16 222.685 1000.35 220.715C1000.38 220.49 1000.65 220.412 1000.82 220.316C1000.89 219.807 1001.05 219.286 1001.4 218.937C1004.27 218.679 1010.83 219.863 1012.55 220.351C1014.9 220.753 1014.65 223.271 1015.09 225.181C1015.78 227.541 1016.27 229.99 1017.3 232.296C1017.53 232.328 1018.18 232.442 1018.42 232.484C1018.43 232.223 1018.31 231.447 1018.55 231.289C1019 230.843 1019.1 231.691 1019.2 231.968C1028.89 230.137 1035.23 238.366 1037.36 247.558C1038.9 252.18 1040.94 256.858 1043.6 261.875C1045.27 264.991 1040.47 265.569 1038.46 266.813C1040.54 274.885 1040.79 283.105 1041.13 291.241C1041.22 292.493 1041.34 294.195 1040.9 294.817C1040.69 294.981 1040.54 294.976 1040.33 294.988C1039.92 295.432 1039.21 295.403 1038.62 295.53C1036.74 295.871 1034.81 296.099 1033 296.134C1027.93 299.276 1020.1 297.519 1013.36 297.993Z" fill="#D08B5B" />
<rect id="ð Top_23" x="983.626" y="243.056" width="46.2014" height="30.379" fill="white" />
<path id="ð Ink_45" fill-rule="evenodd" clip-rule="evenodd" d="M999.643 220.709C999.909 219.374 1002.11 219.683 1002.01 221.03C1000.9 226.04 1001.58 232.139 994.547 231.646C999.01 239.496 1012.79 244.27 1017.25 233.964C1015.05 233.702 1014.62 228.514 1014.35 226.698L1014.34 226.536C1014.28 225.602 1014.3 224.737 1014.86 223.938C1015.42 224.358 1015.65 225.117 1015.84 225.81L1015.98 226.364C1016.44 228.212 1016.93 230.052 1017.66 231.816L1017.69 231.821C1017.65 230.624 1019.19 230.077 1019.57 231.359C1029.96 229.928 1035.65 238.503 1037.89 247.472C1039.52 252.382 1041.66 257.105 1044.08 261.67C1045.91 265.238 1041.47 266.054 1039.12 267.241C1040.93 274.477 1041.28 281.974 1041.62 289.396C1041.5 290.98 1042.22 294.229 1041.26 295.365C1039.85 296.473 1039.08 294.574 1039.3 293.356C1039.51 284.744 1038.61 276.17 1038.35 267.572C1036.58 268.321 1034.78 269.011 1032.97 269.652C1033.06 277.721 1034.02 285.789 1034.36 293.816C1034.81 294.17 1035.06 294.783 1034.68 295.318C1032.62 298.181 1028.91 298.609 1025.65 298.65C1017.87 298.747 1010.09 298.717 1002.32 298.694C994.685 298.521 986.984 299.01 979.389 298.135C977.9 299.253 977.596 296.843 977.795 295.815L977.871 293.756C977.922 292.383 977.976 291.011 978.045 289.639L978.218 286.295C978.508 280.721 978.815 275.149 979.302 269.586C974.891 268.983 970.542 267.913 966.333 266.468C966.679 276.125 965.968 285.886 967.154 295.495C967.936 296.556 966.367 297.553 965.451 296.888C964.316 296.022 964.803 294.328 964.576 293.081L964.547 292.275C964.229 283.584 963.795 274.71 965.415 266.138L964.718 265.868C962.594 265.038 957.131 262.821 957.847 261.727C963.55 246.783 976.308 228.91 993.204 229.76C993.632 230.057 993.85 230.636 994.168 231.05L994.67 230.868C996.617 230.155 998.731 229.252 998.789 226.856C999.157 224.814 999.45 222.772 999.643 220.709ZM1027.49 257.955C1029.91 254.57 1013.12 259.92 1011.93 260.273L1011.48 260.437C1004.13 263.11 996.2 265.694 990.337 271.022C990.214 271.157 990.367 271.343 990.527 271.268L990.547 271.256C990.78 271.126 991.79 270.765 991.075 270.902C999.546 265.56 1009.39 262.626 1019 260.059C1020.4 259.721 1021.8 259.411 1023.21 259.128C1024.64 258.782 1026.24 258.786 1027.49 257.955ZM1000.96 256.854C1001.17 256.01 1002.56 248.255 1000.25 250.382C999.633 251.498 999.397 252.791 999.286 254.048C998.988 255.513 999.74 257.091 999.009 258.442C998.354 260.206 995.947 262.266 995.787 258.989C999.724 258.855 998.542 253.866 995.861 255.408C994.394 256.665 994.14 259.03 994.874 260.763C993.688 259.472 991.764 259.467 990.39 258.493C987.91 255.812 992.076 253.022 994.345 252.056C994.472 251.916 996.332 251.267 995.938 251.189C994.157 251.206 992.373 251.584 990.836 252.521C987.655 254.073 986.572 258.877 990.211 260.561C990.998 260.94 991.859 261.144 992.638 261.535C994.601 262.553 993.967 263.831 991.94 263.869C991.107 264.051 988.356 263.288 988.664 264.749C989.161 265.662 990.245 265.798 991.194 265.824C993.731 265.998 996.886 264.565 995.452 261.58C997.183 263.055 999.344 260.993 1000.09 259.391C1000.99 261.164 1003.26 260.63 1004.54 259.581C1006.5 261.124 1008.96 259.409 1009.83 257.494C1009.85 257.892 1009.87 258.291 1009.89 258.689C1009.93 259.506 1011.19 259.768 1011.38 258.891C1011.67 257.558 1012.06 256.24 1012.6 254.986C1013.84 251.692 1014.6 253.177 1014.64 255.759C1014.8 256.728 1015.28 257.597 1016.35 257.662C1016.65 257.68 1017.04 257.415 1017.09 257.103L1017.15 256.69C1017.28 255.825 1017.43 254.934 1017.76 254.121C1018.07 256.812 1021.6 256.799 1022.58 254.568C1024.62 255.791 1026.75 254.082 1027.71 252.315L1027.73 252.261C1028.07 251.657 1027.22 250.926 1026.74 251.495L1026.57 251.669C1025.66 252.61 1024.21 253.976 1023.02 252.813C1023.06 252.288 1023.04 251.753 1023.01 251.237C1022.97 250.622 1022.12 250.075 1021.64 250.625C1020.96 250.047 1020.11 250.13 1019.4 250.533C1017.56 251.054 1016.4 252.849 1016 254.633C1015.95 253.208 1015.49 251.661 1013.92 251.527C1012.32 251.513 1011.7 253.307 1011.16 254.514C1011.12 253.973 1011.09 253.433 1011.07 252.892C1011.02 251.962 1009.73 251.972 1009.62 252.865L1009.62 252.892C1009.42 254.822 1008.35 259.446 1005.65 258.541C1006.79 257.288 1008.85 253.47 1006.89 252.28C1003.88 251.523 1002.33 256.272 1003.62 258.481L1003.55 258.528C1002.82 259.034 1001.61 259.597 1001.2 258.463L1001.15 258.359C1000.94 257.879 1000.75 257.36 1000.96 256.854ZM996.655 256.318C997.225 255.986 997.428 257.088 997.282 257.457C997.049 258.051 996.413 258.381 995.78 258.607L995.782 258.54C995.81 257.863 996.036 256.68 996.655 256.318ZM1006.25 253.568C1006.26 253.647 1006.24 253.744 1006.24 253.818C1006.14 255.117 1005.56 256.364 1004.76 257.377C1004.3 256 1004.89 254.181 1006.25 253.568ZM1019.95 251.944C1020.32 251.846 1020.72 251.874 1021.1 251.976C1021.07 252.409 1021.16 252.842 1021.35 253.24C1020.37 256.192 1018.06 253.919 1019.95 251.944Z" fill="black" />
</g>
</svg>